<svg version="1" xmlns="http://www.w3.org/2000/svg" width="1365.333" height="1365.333" viewBox="0 0 1024.000000 1024.000000"><path d="M486.9 10.4c-.2.2-5.4.6-11.5 1s-12.1.8-13.5 1.1c-1.3.2-5.1.6-8.4 1-3.3.3-6.9.8-8 1-1.1.2-4.2.7-6.8 1-2.6.3-7.1 1-10 1.6-2.9.5-6.5 1.2-8.2 1.4-16.2 2.7-42.7 9.5-63.4 16.4C325.5 45.4 299 56.8 272 71.7c-51.1 28.2-97.1 65-133.7 106.8-5.8 6.6-11.5 13.1-12.7 14.5-4.1 4.7-18.3 23.5-25.2 33.5-34.4 49.7-59.8 105.7-74.3 164-3.1 12.5-6.6 29.1-7.6 36-.3 2.3-.7 5.2-1 6.5-.3 1.3-.7 4.2-1 6.5-.4 2.2-.8 5.1-1 6.5-.2 1.4-.7 5.6-1.1 9.5-.3 3.8-.8 7.7-.9 8.6-2.5 13.1-2.5 82.7-.1 95.7.2.9.7 5.1 1.1 9.2.7 8.1 1 10.9 1.8 15.5.3 1.6.9 5 1.2 7.5 1.4 8.5 5.1 27.4 7.1 35.5.8 3.3 1.7 7 2 8.3.2 1.2 2.4 9.1 4.8 17.5 20.3 70.6 59.6 141 109 195.1 32 35.2 66.6 64.3 104.9 88.5 7.1 4.5 13 8.1 13.2 8.1.2 0 3.2 1.7 6.6 3.8 9.6 5.8 38.8 20.3 52.7 26.1 27.4 11.6 59.5 21.8 86.7 27.7 3.9.9 7.9 1.8 9 2 4.8 1.1 30.5 5.3 36 5.8 3.3.4 7.8.9 10 1.1 9.2 1.2 12.6 1.5 25.5 2.1 22.8 1.3 58.9.7 72.7-1.1 1.7-.2 6.2-.7 10-1 3.7-.3 8.2-.8 9.8-1 42.9-6.3 66.7-11.9 100.5-23.7 18.5-6.5 24.4-8.8 36.8-14.4 2.9-1.3 5.5-2.4 5.8-2.4 1.1 0 31-15.4 42.1-21.6 22.1-12.5 54-34.6 71.8-49.8 3.3-2.8 7.3-6.2 8.9-7.6 28.8-24.5 63.2-63.3 86.3-97.5 5.8-8.6 18.1-28.4 19.6-31.5.4-.8 1.7-3.1 2.9-5 7-11.5 22.4-44.2 30.1-64 9.9-25.4 22-68.2 25.1-89.5.4-2.2.8-4.7 1.1-5.5.2-.8.6-3.1.9-5 .2-1.9.7-5.1 1-7 .9-5.6 1.8-12.6 3.1-25.5 2.6-25.2 2.6-73.6 0-97-.6-4.6-1.3-10.5-2.1-17.3-1.1-8.9-3.5-23.7-5.5-33.3-1.1-5.2-2.1-10.5-2.3-11.6-1.3-6.3-9-34.4-12.5-44.8-10-30.7-23.5-61.6-37.5-86.3-2-3.5-3.6-6.5-3.6-6.7 0-.8-13.8-22.9-20.3-32.5-30-44.5-71.3-87.9-114.2-120.1-40.2-30.2-84.1-54.1-130.3-70.8-13.3-4.9-35.2-11.8-40.1-12.7-1.4-.3-2.7-.7-3.1-.9-1.5-.9-34.1-7.9-46.5-9.9-7.8-1.3-9.3-1.5-13-2-8.7-1.1-12.3-1.5-19-2.2-3.8-.4-8.3-.9-10-1.1-3.7-.5-66.1-1.3-66.6-.9zm52.6 191.1c1.7.2 5.3.7 8 1 7.1.9 33.8 6.3 36.9 7.5 1.4.5 2.6.7 2.6.5 0-.3 2.1.4 4.8 1.4 2.6 1 4.9 1.9 5.2 1.8 1.1-.1 12.2 3.8 22.5 8 12.9 5.2 34.6 16 42.5 21 3 2 7.3 4.8 9.5 6.2 22.1 14.2 45.3 35 65.5 58.7 3.8 4.4 16.2 21.2 20.2 27.4 19.2 29.6 33.1 62.7 40.8 97 2.6 11.5 4 20.3 5.5 33 1.5 13 2.1 42.7 1.1 52.5-.3 2.2-.8 7.1-1.1 10.8-.4 3.7-.8 7.7-1 8.9-.2 1.1-.7 4.1-1 6.7-1 7.1-1.2 8.1-3 16-.9 4-1.8 7.8-1.9 8.5-.6 2.9-3 10.9-5.8 19.6-32.1 99-111.9 172.9-213.2 197.6-13.8 3.4-16.6 5.2-16.6 11.2 0 6.8 5.2 15.3 15.9 26.1 5.3 5.3 10.7 10.6 12.1 11.6 6.4 5 14 10.5 14.4 10.5.2 0 2.7 1.6 5.6 3.5 12.2 8.2 43.2 21.8 56.5 24.7 1.7.4 1.6.6-1 1.7-7.6 3.1-17.4 4.4-36 4.6-17.4.2-23.8-.1-38-2-8.1-1.1-24.3-4.2-34-6.5-4.9-1.2-9.7-2.3-10.5-2.5-4-.9-20.4-5.9-28-8.4-42-14.2-80.3-33.2-118-58.4-7.4-5-13.7-9.3-14-9.6-.3-.4-4.1-3.3-8.4-6.6-20.5-15.4-46-39-60.8-56.2-3.7-4.3-7.9-9.2-9.3-10.8-1.4-1.7-4.5-5.5-6.8-8.5-3.9-5.2-12.5-15.4-19.4-23-28.8-32-50.6-74.4-61.6-120-1.4-5.7-2.1-8.8-4.2-19.9-.8-4.2-2.4-17.3-3.2-25.6-1.4-14.6-.7-50.6 1.1-60 .2-1.1.7-4.5 1.1-7.5.8-6.5 4.1-23.9 5.6-29.5.6-2.2 1.3-4.7 1.5-5.5.2-.8 1.4-5.1 2.8-9.5 20.3-65.7 62.9-122.5 120.1-160.1 10.5-6.9 11.6-7.6 17-10.6 23.2-13 43.5-21.3 68.5-28.3.3-.1 2.5-.7 5-1.4s5.4-1.5 6.5-1.7c14.7-2.9 18.6-3.6 22-4 2.2-.3 5.1-.7 6.5-1 1.4-.2 6.1-.7 10.5-1 4.4-.4 8.2-.8 8.4-1 .6-.5 46.6.5 50.6 1.1z"/></svg>